<?xml version="1.0" encoding="UTF-8"?> <svg xmlns="http://www.w3.org/2000/svg" width="1024" height="700" viewBox="0 0 1024 700" fill="none"><rect width="1024" height="700" rx="50" fill="white"></rect><g clip-path="url(#clip0_3662_2291)"><path d="M527.56 675.002C759.497 675.002 947.519 659.162 947.519 639.622C947.519 620.082 759.497 604.242 527.56 604.242C295.624 604.242 107.602 620.082 107.602 639.622C107.602 659.162 295.624 675.002 527.56 675.002Z" fill="#E0DAE6"></path><path d="M207.431 510.805H197.254V631.681H207.431V510.805Z" fill="#7E728C"></path><path fill-rule="evenodd" clip-rule="evenodd" d="M251.257 641.754C237.898 632.434 220.88 626.844 202.341 626.844C183.802 626.844 166.784 632.434 153.426 641.754H251.257Z" fill="#9E90AE"></path><path fill-rule="evenodd" clip-rule="evenodd" d="M153.426 641.75H251.257V646.551C251.257 647.591 250.405 648.442 249.365 648.442H155.318C154.277 648.442 153.426 647.591 153.426 646.551V641.75Z" fill="#7E728C"></path><path fill-rule="evenodd" clip-rule="evenodd" d="M222.301 503.422C222.301 508.246 218.354 512.193 213.53 512.193H191.154C186.33 512.193 182.383 508.246 182.383 503.422H222.301Z" fill="#7E728C"></path><path fill-rule="evenodd" clip-rule="evenodd" d="M184.86 305.474C184.86 305.474 136.332 277.051 95.4279 308.247C54.5236 339.443 89.1926 390.745 100.283 425.406C111.372 460.067 111.369 494.894 188.328 505.128C255.245 514.026 311.732 478.089 304.104 446.202C296.476 414.314 256.264 417.084 245.174 390.743C234.084 364.401 227.151 333.206 184.861 305.475L184.86 305.474Z" fill="#9E90AE"></path><path fill-rule="evenodd" clip-rule="evenodd" d="M291.927 428.982C276.832 415.506 252.652 411.963 244.439 392.457C233.349 366.116 226.417 334.92 184.126 307.189C184.126 307.189 150.501 296.792 117.571 313.776C84.6412 330.76 117.571 372.008 124.504 399.39C131.437 426.772 142.184 453.459 169.567 463.511C196.951 473.563 244.096 473.566 274.945 463.86C305.674 454.192 292.034 429.177 291.927 428.982Z" fill="#7E728C"></path><path d="M780.411 510.805H770.234V631.681H780.411V510.805Z" fill="#7E728C"></path><path fill-rule="evenodd" clip-rule="evenodd" d="M726.406 641.754C739.764 632.434 756.783 626.844 775.322 626.844C793.861 626.844 810.879 632.434 824.237 641.754H726.406Z" fill="#9E90AE"></path><path fill-rule="evenodd" clip-rule="evenodd" d="M824.237 641.75H726.406V646.551C726.406 647.591 727.257 648.442 728.298 648.442H822.345C823.386 648.442 824.237 647.591 824.237 646.551V641.75Z" fill="#7E728C"></path><path fill-rule="evenodd" clip-rule="evenodd" d="M755.363 503.422C755.363 508.246 759.311 512.193 764.134 512.193H786.51C791.334 512.193 795.282 508.246 795.282 503.422H755.363Z" fill="#7E728C"></path><path fill-rule="evenodd" clip-rule="evenodd" d="M792.804 305.474C792.804 305.474 841.332 277.051 882.236 308.247C923.14 339.443 888.471 390.745 877.381 425.406C866.291 460.067 866.295 494.894 789.336 505.128C722.419 514.026 665.932 478.089 673.56 446.202C681.187 414.314 721.4 417.084 732.49 390.743C743.58 364.401 750.512 333.206 792.803 305.475L792.804 305.474Z" fill="#9E90AE"></path><path fill-rule="evenodd" clip-rule="evenodd" d="M685.736 428.982C700.832 415.506 725.012 411.963 733.225 392.457C744.315 366.116 751.247 334.92 793.538 307.189C793.538 307.189 827.163 296.792 860.093 313.776C893.023 330.76 860.093 372.008 853.16 399.39C846.226 426.772 835.479 453.459 808.096 463.511C780.712 473.563 733.567 473.566 702.719 463.86C671.99 454.192 685.63 429.177 685.736 428.982Z" fill="#7E728C"></path><path d="M356.935 612.135L381.584 610.516C385.347 619.391 394.137 627.981 406.225 633.915C418.313 639.85 439.829 643.091 439.829 643.091C439.829 643.091 439.984 648.061 435.368 650.07C433.819 650.745 359.384 649.345 355.555 649.072C354.135 637.708 358.414 625.094 356.935 612.135Z" fill="#0B152B"></path><path d="M186.892 388.345L161.739 379.797L158.802 391.521C158.802 391.521 153.562 414.66 164.834 435.772C174.859 454.549 217.835 467.936 236.643 473.309C255.45 478.681 318.942 495.094 318.942 495.094C318.942 495.094 318.697 501.689 321.385 504.621C324.073 507.551 328.469 508.285 328.469 508.285L354.599 620.259L390.382 619.892C390.382 619.892 378.404 511.469 375.959 498.624C373.514 485.779 373.878 476.273 358.249 462.963C348.783 454.903 268.355 417.286 260.05 409.714C251.746 402.142 186.892 388.345 186.892 388.345Z" fill="#172647"></path><path d="M257.522 612.135L282.17 610.516C285.933 619.391 294.723 627.981 306.811 633.915C318.899 639.85 340.415 643.091 340.415 643.091C340.415 643.091 340.571 648.061 335.954 650.07C334.405 650.745 259.97 649.345 256.141 649.072C254.721 637.708 259 625.094 257.522 612.135Z" fill="#0B152B"></path><path d="M180.149 390.649L154.996 382.102L152.06 393.825C152.06 393.825 146.821 416.965 158.092 438.076C168.116 456.852 198.628 466.005 217.437 471.378C236.245 476.75 265.202 483.861 265.202 483.861C265.202 483.861 264.957 490.456 267.645 493.387C270.332 496.319 274.728 497.052 274.728 497.052L254.937 620.75L292.431 621.97C292.431 621.97 318.678 498.016 318.799 486.17C318.919 474.324 314.523 460.888 304.508 451.73C295.333 443.338 238.066 417.289 229.761 409.718C221.457 402.146 180.149 390.649 180.149 390.649Z" fill="#293B61"></path><path d="M150.844 406.844C150.813 415.398 152.185 427.013 158.09 438.074C168.115 456.85 198.627 466.002 217.435 471.375C236.243 476.748 265.2 483.859 265.2 483.859C265.2 483.859 264.955 490.453 267.643 493.385C270.331 496.316 274.727 497.05 274.727 497.05L254.935 620.747L259.031 620.88C265.409 591.526 284.116 505.43 285.533 498.955C287.244 491.138 281.381 491.627 281.433 485.322C281.485 479.018 275.273 475.506 261.351 472.819C247.428 470.133 230.328 467.691 221.046 456.942C211.763 446.194 200.772 445.462 190.757 437.647C180.742 429.832 186.367 413.563 186.367 413.563L189.536 408.092L150.844 406.844Z" fill="#172647"></path><path fill-rule="evenodd" clip-rule="evenodd" d="M398.996 341.026C398.996 341.026 407.572 341.378 412.22 340.378C416.868 339.378 426.657 335.254 430.046 335.734C433.435 336.214 434.467 338.813 439.863 340.281C445.26 341.748 450.947 349.768 452.551 352.862C454.157 355.955 453.268 357.379 451.386 358.226C449.503 359.074 447.327 358.697 447.327 358.697C447.327 358.697 447.057 362.871 445.53 363.196C444.004 363.52 438.311 361.437 437.296 360.165C436.28 358.893 434.513 359.01 434.513 359.01C434.513 359.01 430.539 358.432 428.449 359.355C426.359 360.279 420.471 362.597 414.878 358.459C409.285 354.321 399.808 356.467 399.808 356.467L398.996 341.026Z" fill="#FABBC7"></path><path fill-rule="evenodd" clip-rule="evenodd" d="M241.731 238.738C226.888 267.778 258.081 281.586 267.38 295.892C270.555 300.778 282.768 338.639 290.585 343.523C298.402 348.407 302.555 361.322 336.264 361.322C369.056 361.322 374.316 360.238 406.856 359.031C408.252 355.482 409.11 351.2 408.834 347.338C408.586 343.863 407.336 340.828 406.123 337.171C393.922 337.049 334.056 329.652 328.69 323.495C324.539 318.733 322.462 320.441 320.263 318.12C318.065 315.799 304.509 278.184 300.356 264.995C296.203 251.805 290.217 235.277 282.4 230.637C274.583 225.996 246.864 226.678 241.731 238.738Z" fill="#EB869A"></path><path fill-rule="evenodd" clip-rule="evenodd" d="M194.715 231.787C178.226 248.298 184.054 266.456 170.703 305.221C161.208 332.789 142.013 406.929 151.416 416.447C174.652 417.153 181.926 410.856 214.952 413.927C245.629 416.778 250.653 413.902 257.492 408.04C260.613 350.103 273.514 327.874 280.114 308.359C290.278 278.305 295.598 265.493 291.201 247.418C286.803 229.343 270.44 217.377 250.897 214.934C231.355 212.49 203.055 223.435 194.715 231.787V231.787Z" fill="#E07086"></path><path fill-rule="evenodd" clip-rule="evenodd" d="M178.481 276.281L178.478 276.29L178.481 276.282V276.281ZM174.304 293.724C173.28 297.345 172.098 301.167 170.703 305.216C161.208 332.783 142.013 406.923 151.416 416.441C174.652 417.148 181.926 410.851 214.952 413.921C245.629 416.772 250.653 413.897 257.492 408.034C257.574 406.51 257.665 405.016 257.76 403.54C247.279 406.882 231.832 406.598 216.652 398.814C198.046 389.273 178.058 404.187 174.314 384.071C170.57 363.956 176.103 355.825 171.218 337.75C168.355 327.159 171.341 307.876 174.304 293.725V293.724Z" fill="#CF5F75"></path><path fill-rule="evenodd" clip-rule="evenodd" d="M231.856 183.203L231.904 197.315C231.904 197.315 228.901 217.606 229.284 218.33C230.08 219.837 247.113 232.955 259.916 231.219L260.105 212.308L231.856 183.203Z" fill="#FABBC7"></path><path fill-rule="evenodd" clip-rule="evenodd" d="M231.855 183.203L231.903 197.315C238.761 216.084 251.308 221.884 259.979 224.775L260.104 212.308L231.855 183.203Z" fill="#E08D9D"></path><path d="M230.848 193.228C230.848 193.228 217.052 168.006 215.074 154.074C213.096 140.142 225.432 135.926 225.432 135.926C225.432 135.926 227.069 114.673 247.535 115.27C268.001 115.867 284.227 122.724 296.249 119.854C308.271 116.984 314.049 145.884 291.507 156.646C255.653 173.763 241.466 171.574 230.848 193.228Z" fill="#0B152B"></path><path fill-rule="evenodd" clip-rule="evenodd" d="M292.123 166.805C293.645 190.973 286.315 218.108 268.469 219.078C246.398 220.277 231.299 203.376 228.115 182.896C220.368 187.315 213.395 168.723 220.199 165.191C225.826 162.268 227.813 166.415 229.292 168.934C229.292 168.934 229.983 178.106 231.592 178.2C233.202 178.296 233.502 173.38 232.76 166.929C234.692 164.745 240.586 163.599 241.136 153.534C248.492 138.305 277.083 150.904 290.08 146.562C291.387 153.53 292.306 163.696 292.123 166.805Z" fill="#FABBC7"></path><path fill-rule="evenodd" clip-rule="evenodd" d="M224.292 168.571C224.95 168.558 226.596 168.969 226.9 170.513C227.205 172.057 226.738 173.387 225.073 173.726C223.409 174.066 223.885 176.885 226.423 177.03C228.96 177.175 226.766 181.135 224.31 179.187C221.854 177.239 219.458 168.66 224.292 168.571Z" fill="#E08D9D"></path><path d="M263.394 170.179C263.132 169.755 261.666 168.173 260.594 167.86C259.522 167.547 247.4 170.355 246.633 170.928C245.865 171.5 247.491 172.396 247.922 172.618C248.353 172.84 263.657 171.236 263.394 170.179Z" fill="#0B152B"></path><path d="M276.465 168.898C276.63 168.427 277.389 166.792 278.369 166.257C279.348 165.721 287.694 166.025 288.567 166.418C289.44 166.812 288.415 167.517 288.043 167.826C287.671 168.134 276.434 169.986 276.465 168.898Z" fill="#0B152B"></path><path fill-rule="evenodd" clip-rule="evenodd" d="M275.24 181.125C277.372 181.814 278.599 185.787 281.671 189.569C284.744 193.351 278.124 197.273 275.666 192.912C273.208 188.551 273.219 181.23 275.24 181.125Z" fill="#E08D9D"></path><path d="M261.573 180.685C263.052 180.685 264.252 179.486 264.252 178.007C264.252 176.527 263.052 175.328 261.573 175.328C260.094 175.328 258.895 176.527 258.895 178.007C258.895 179.486 260.094 180.685 261.573 180.685Z" fill="#0B152B"></path><path d="M283.432 179.693C284.912 179.693 286.111 178.494 286.111 177.014C286.111 175.535 284.912 174.336 283.432 174.336C281.953 174.336 280.754 175.535 280.754 177.014C280.754 178.494 281.953 179.693 283.432 179.693Z" fill="#0B152B"></path><path d="M281.17 201.589C281.144 201.6 272.067 205.634 263.184 200.183L264.143 198.609C272.206 203.556 280.41 199.91 280.434 199.9L281.17 201.589Z" fill="#293B61"></path><path fill-rule="evenodd" clip-rule="evenodd" d="M326.691 341.026C326.691 341.026 335.267 341.378 339.915 340.378C344.563 339.378 354.352 335.254 357.74 335.734C361.13 336.214 362.162 338.813 367.558 340.281C372.955 341.748 378.641 349.768 380.247 352.862C381.852 355.955 380.964 357.379 379.081 358.226C377.198 359.074 375.023 358.697 375.023 358.697C375.023 358.697 374.751 362.871 373.225 363.196C371.699 363.52 366.006 361.437 364.991 360.165C363.976 358.893 362.209 359.01 362.209 359.01C362.209 359.01 358.234 358.432 356.145 359.355C354.055 360.279 348.166 362.597 342.573 358.459C336.981 354.321 327.503 356.467 327.503 356.467L326.691 341.026Z" fill="#FABBC7"></path><path fill-rule="evenodd" clip-rule="evenodd" d="M192.519 293.72C195.896 303.317 210.462 338.64 218.279 343.525C226.096 348.409 229.457 361.32 263.165 361.32C295.956 361.32 302.01 360.239 334.55 359.033C335.946 355.484 336.805 351.202 336.529 347.339C336.28 343.865 335.03 340.829 333.818 337.173C321.616 337.05 261.75 329.653 256.384 323.496C252.233 318.735 250.157 320.443 247.957 318.122C245.758 315.801 233.224 281.344 229.071 268.155C224.918 254.965 222.539 237.82 213.514 236.744C192.443 234.231 178.547 254.011 192.519 293.72Z" fill="#EB869A"></path><path fill-rule="evenodd" clip-rule="evenodd" d="M567.932 255.829C565.041 253.324 561.215 253.222 556.504 250.216C551.793 247.211 545.578 243.906 543.574 243.002C541.571 242.098 539.865 245.208 543.874 248.615C547.884 252.022 552.897 254.327 552.997 255.43C553.097 256.531 549.187 258.536 540.467 257.735C531.747 256.933 530.443 256.031 525.132 254.428C519.82 252.824 522.628 258.137 524.532 259.338C526.436 260.54 527.939 263.948 530.345 265.251C532.75 266.555 535.256 269.26 540.067 271.565C544.878 273.871 549.087 275.46 553.499 276.062C557.91 276.664 564.801 275.306 567.529 276.071C570.256 276.837 578.153 289.305 578.153 289.305L591.082 277.878C579.216 263.184 570.823 258.335 567.932 255.829Z" fill="#FABBC7"></path><path d="M622.377 609.647L596.591 607.953C592.655 617.238 583.46 626.224 570.814 632.432C558.169 638.64 535.661 642.03 535.661 642.03C535.661 642.03 535.498 647.23 540.327 649.332C545.156 651.433 587.189 649.312 587.969 649.248C588.749 649.184 602.731 644.838 602.731 644.838L608.025 649.414L623.822 648.287C625.307 636.399 620.83 623.204 622.377 609.647Z" fill="#0B152B"></path><path d="M790.771 388.353L815.924 379.805L818.861 391.529C818.861 391.529 824.101 414.667 812.829 435.779C802.804 454.557 759.829 467.944 741.021 473.316C722.212 478.689 658.722 495.102 658.722 495.102C658.722 495.102 658.966 501.697 656.279 504.628C653.591 507.559 649.195 508.293 649.195 508.293L623.065 620.267L587.281 619.9C587.281 619.9 599.26 511.477 601.705 498.632C604.149 485.787 603.785 476.28 619.415 462.971C628.879 454.911 705.033 421.447 713.338 413.875C714.861 412.486 723.545 406.973 728.124 405.29C748.509 397.795 790.771 388.353 790.771 388.353Z" fill="#172647"></path><path d="M719.659 610.502L697.048 607.953C693.112 617.238 683.917 626.224 671.271 632.432C658.626 638.64 636.118 642.03 636.118 642.03C636.118 642.03 635.955 647.23 640.784 649.332C645.613 651.433 687.646 649.312 688.426 649.248C689.206 649.184 703.188 644.838 703.188 644.838L708.482 649.414L724.279 648.287C725.764 636.399 722.265 623.327 719.659 610.502Z" fill="#0B152B"></path><path d="M797.515 390.649L822.668 382.102L825.605 393.825C825.605 393.825 830.844 416.965 819.572 438.076C809.548 456.852 779.036 466.005 760.228 471.378C741.42 476.75 712.462 483.861 712.462 483.861C712.462 483.861 712.708 490.456 710.02 493.387C707.332 496.319 702.936 497.052 702.936 497.052L722.728 620.75L685.234 621.97C685.234 621.97 658.986 498.016 658.866 486.17C658.745 474.324 663.142 460.888 673.156 451.73C682.331 443.338 739.598 417.289 747.903 409.718C756.207 402.146 797.515 390.649 797.515 390.649Z" fill="#293B61"></path><path d="M727.816 401.098L728.124 405.29C728.124 405.29 746.814 407.663 768.676 404.243C790.537 400.823 825.835 395.016 825.835 395.016L823.979 385.391C802.723 388.882 769.377 397.294 727.816 401.098Z" fill="#0B152B"></path><path d="M586.025 269.828C586.025 269.828 579.642 271.689 576.319 275.013C572.994 278.338 570.867 283.655 570.867 283.655C570.867 283.655 592.136 312.585 598.783 320.296C605.431 328.006 627.907 359.706 637.481 361.301C647.052 362.896 655.032 358.903 662.476 357.046C667.339 355.833 680.79 340.446 687.678 323.786C691.633 314.222 697.045 308.31 703.431 295.598C703.431 295.598 707.332 294.706 712.706 308.384C718.081 322.062 716.615 333.298 718.569 340.137C720.523 346.976 729.323 365.404 724.682 377.129C720.041 388.855 727.816 401.097 727.816 401.097C727.816 401.097 754.721 399.735 769.376 397.293C784.032 394.85 820.049 386.78 823.637 385.982C831.96 372.482 824.565 317.301 814.674 281.974C807.836 257.55 805.527 221.913 800.764 217.394C796.001 212.875 783.177 211.287 775.972 211.043L775.843 211.039C773.922 210.529 771.838 209.847 770.463 209.027C767.288 207.133 766.066 205.668 762.585 206.523C759.104 207.379 754.484 207.878 754.484 207.878L753.965 208.844C749.501 206.929 747.268 206.499 741.041 208.478C734.314 210.617 726.522 210.277 726.522 210.277C721.117 209.504 715.1 210.451 712.299 214.507C709.685 218.293 685.937 221.529 681.546 235.585C676.131 252.925 666.394 267.404 661.194 284.758C659.602 290.069 644.036 317.507 644.036 317.507C644.036 317.507 630.3 311.045 621.26 301.738C609.191 289.315 599.426 280.342 586.025 269.828Z" fill="#4D79D1"></path><path d="M803.059 222.34C802.344 219.902 801.591 218.178 800.764 217.394C796.002 212.875 783.177 211.287 775.972 211.043L775.843 211.039C773.922 210.529 771.838 209.847 770.464 209.027C767.289 207.133 766.066 205.668 762.586 206.523C759.105 207.379 754.484 207.878 754.484 207.878L753.965 208.844C750.573 207.388 748.469 206.792 744.922 207.457C745.989 208.525 747.252 209.63 748.753 210.783L763.806 218.471C763.806 218.471 768.049 217.744 782.461 220.187C792.073 221.816 798.372 221.76 803.059 222.34Z" fill="#3C64B5"></path><path d="M827.24 364.678C827.372 341.598 821.644 306.858 814.676 281.972C811.054 269.039 808.703 252.964 806.586 240.028C802.734 239.274 798.582 238.785 794.072 238.633L790.055 253.171C790.055 253.171 803.04 288.367 806.494 299.405C809.949 310.443 803.632 317.738 805.203 325.937C806.774 334.136 802.376 358.423 794.804 361.668C787.232 364.913 778.438 371.019 778.438 371.019L787.232 381.278C787.232 381.278 793.826 377.125 800.422 375.171C805.228 373.748 818.071 368.047 827.24 364.678Z" fill="#3C64B5"></path><path d="M638.273 361.42C647.495 362.676 655.239 358.853 662.477 357.046C667.34 355.834 680.791 340.446 687.679 323.786C691.634 314.222 697.046 308.31 703.432 295.599C703.432 295.599 704.217 295.42 705.565 296.455V296.454C701.935 289.784 695.148 288.469 695.148 288.469C695.148 288.469 692.827 298.116 686.356 305.322C679.883 312.526 675.485 320.71 670.966 332.433C666.447 344.158 665.104 349.043 660.341 353.317C655.578 357.591 638.845 361.332 638.845 361.332L638.273 361.42Z" fill="#3C64B5"></path><path fill-rule="evenodd" clip-rule="evenodd" d="M586.025 269.828C586.025 269.828 579.642 271.689 576.319 275.012C572.994 278.337 570.867 283.654 570.867 283.654C570.867 283.654 574.978 289.245 580.149 296.166C586.568 287.916 596.907 278.705 596.907 278.705C593.488 275.795 589.91 272.875 586.025 269.828Z" fill="#6C95E6"></path><path fill-rule="evenodd" clip-rule="evenodd" d="M750.777 399.483C747.96 385.753 745.361 370.663 745.348 370.592L747.15 370.281C747.164 370.352 749.834 385.626 752.642 399.314L750.777 399.483Z" fill="#6C95E6"></path><path d="M745.109 221.574L740.665 232.314C743.167 330.432 754.986 370.889 754.486 373.794C753.986 376.698 749.647 383.667 748.299 383.818C746.952 383.969 737.974 378.708 737.34 376.299C736.707 373.889 725.036 300.687 734.259 232.32L727.887 222.562C727.887 222.562 734.781 219.57 745.109 221.574Z" fill="#293B61"></path><path d="M707.426 159.731C707.426 159.731 703.57 152.612 701.79 144.01C700.01 135.409 704.756 126.213 704.756 126.213C704.756 126.213 700.9 118.204 701.79 109.009C702.679 99.8137 715.709 89.2532 738.253 100.821C760.797 112.389 771.797 104.561 779.805 114.645C787.814 124.729 782.475 135.409 782.475 135.409C782.475 135.409 793.452 144.899 789.001 157.654C784.551 170.409 758.879 189.349 758.879 189.349L707.426 159.731Z" fill="#0B152B"></path><path fill-rule="evenodd" clip-rule="evenodd" d="M749.69 207.698C752.509 208.589 755.702 207.405 757.594 207.775C764.24 212.847 765.677 223.823 764.115 234.631C757.688 229.242 741.688 221.951 736.187 222.365C729.066 223.651 724.036 227.812 721.338 232.324C721.088 220.791 721.01 214.104 729.502 205.916C737.165 205.57 742.027 208.044 749.69 207.698Z" fill="#6C95E6"></path><path fill-rule="evenodd" clip-rule="evenodd" d="M759.942 167.18C759.757 168.664 757.902 211.526 757.902 211.526C757.902 211.526 738.67 221.062 736.682 221.022C734.694 220.981 728.582 214.125 728.582 214.125L730.252 180.91L759.942 167.18Z" fill="#FABBC7"></path><path fill-rule="evenodd" clip-rule="evenodd" d="M759.942 167.18C759.826 168.107 759.366 178.195 758.809 190.883C752.571 201.506 736.298 207.244 729.082 204.154L730.252 180.91L759.942 167.18Z" fill="#E08D9D"></path><path fill-rule="evenodd" clip-rule="evenodd" d="M725.847 203.847C751.367 209.304 761.944 176.055 761.944 176.055C773.357 184.151 783.191 152.434 763.749 159.091C763.749 159.091 768.172 145.196 755.899 144.112C743.625 143.029 726.026 143.927 717.725 137.435C704.365 126.981 694.534 197.148 725.847 203.847Z" fill="#FABBC7"></path><path fill-rule="evenodd" clip-rule="evenodd" d="M769.671 161.198C768.894 161.08 766.88 161.307 766.277 163.088C765.674 164.868 766.018 166.515 767.935 167.18C769.853 167.844 768.846 171.106 765.818 170.879C762.791 170.652 764.766 175.686 767.98 173.765C771.194 171.844 775.38 162.064 769.671 161.198Z" fill="#E08D9D"></path><path d="M736.863 154.176C737.132 153.74 738.64 152.112 739.742 151.791C740.845 151.469 753.311 154.356 754.101 154.945C754.89 155.534 753.217 156.456 752.774 156.683C752.332 156.912 736.592 155.262 736.863 154.176Z" fill="#0B152B"></path><path d="M723.421 152.864C723.251 152.38 722.47 150.698 721.462 150.148C720.456 149.597 711.872 149.909 710.974 150.314C710.076 150.718 711.13 151.444 711.514 151.762C711.896 152.079 723.452 153.984 723.421 152.864Z" fill="#0B152B"></path><path fill-rule="evenodd" clip-rule="evenodd" d="M727.907 163.883C725.714 164.592 724.453 168.678 721.293 172.567C718.134 176.457 724.942 180.49 727.469 176.005C729.997 171.52 729.986 163.991 727.907 163.883Z" fill="#E08D9D"></path><path d="M742.536 166.9C744.057 166.9 745.291 165.667 745.291 164.145C745.291 162.624 744.057 161.391 742.536 161.391C741.015 161.391 739.781 162.624 739.781 164.145C739.781 165.667 741.015 166.9 742.536 166.9Z" fill="#0B152B"></path><path d="M718.657 165.4C720.179 165.4 721.412 164.167 721.412 162.645C721.412 161.124 720.179 159.891 718.657 159.891C717.136 159.891 715.902 161.124 715.902 162.645C715.902 164.167 717.136 165.4 718.657 165.4Z" fill="#0B152B"></path><path fill-rule="evenodd" clip-rule="evenodd" d="M720.473 182.632C727.278 184.445 733.862 184.035 740.274 181.891C738.522 193.372 724.419 198.422 720.473 182.632Z" fill="#9E4154"></path><path fill-rule="evenodd" clip-rule="evenodd" d="M737.419 188.567C734.089 192.748 728.684 194.14 724.672 190.518C728.689 188.695 734.193 188.496 737.419 188.567Z" fill="#E07086"></path><path fill-rule="evenodd" clip-rule="evenodd" d="M720.473 182.632C727.277 184.445 733.862 184.035 740.274 181.891C740.274 181.891 736.903 188.634 725.355 186.874C723.99 186.665 722.768 186.431 721.672 186.179C721.21 185.137 720.805 183.959 720.473 182.632Z" fill="white"></path><path fill-rule="evenodd" clip-rule="evenodd" d="M784.834 266.038C784.834 266.038 774.622 265.494 769.855 265.281C765.088 265.067 755.001 265.161 755.001 265.161L754.926 270.471C754.926 270.471 766.644 269.883 770.564 270.074C774.483 270.263 784.086 270.635 784.086 270.635L784.834 266.038Z" fill="#6C95E6"></path><path fill-rule="evenodd" clip-rule="evenodd" d="M763.075 360.77C759.275 361.217 756.621 363.974 751.226 365.428C745.83 366.881 739.199 369.244 737.181 370.115C735.162 370.986 736.309 374.342 741.529 373.677C746.749 373.012 751.831 370.863 752.712 371.532C753.593 372.201 752.44 376.44 745.969 382.341C739.499 388.242 737.954 388.597 733.189 391.439C728.425 394.281 734.242 395.789 736.413 395.192C738.584 394.596 742.115 395.782 744.699 394.884C747.284 393.986 750.971 393.959 755.917 391.959C760.863 389.96 764.874 387.921 768.292 385.069C771.71 382.217 775.352 376.211 777.756 374.712C780.159 373.213 796.193 363.202 796.193 363.202L784.716 350.555C774.759 359.341 766.874 360.323 763.075 360.77Z" fill="#FABBC7"></path><path d="M793.235 213.609C803.481 214.213 811.519 216.86 815.704 220.929C819.888 224.998 824.254 229.479 830.604 247.553C836.955 265.626 849.748 283.138 853.588 295.135C857.428 307.131 858.83 319.573 846.235 331.332C833.64 343.091 785.901 372.61 785.901 372.61L772.223 355.27C772.223 355.27 803.976 327.669 807.885 323.272C811.793 318.875 816.746 316.277 815.956 312.232C815.166 308.188 817.9 303.487 817.9 301.289C817.9 299.091 793.474 264.895 790.053 253.171C779.138 232.186 784.112 214.784 793.235 213.609Z" fill="#4D79D1"></path><path d="M793.233 213.609C803.479 214.213 811.517 216.86 815.702 220.929C819.372 224.498 823.183 228.387 828.35 241.488C825.515 234.669 814.234 226.604 809.085 223.969C804.22 221.479 797.884 222.451 785.516 220.664C787.173 216.586 789.931 214.035 793.233 213.609Z" fill="#3C64B5"></path><path fill-rule="evenodd" clip-rule="evenodd" d="M800.392 363.474C791.99 368.85 785.901 372.615 785.901 372.615L772.223 355.275C772.223 355.275 778.281 350.009 785.432 343.711C790.787 349.158 796.429 356.045 800.392 363.474Z" fill="#6C95E6"></path><path d="M744.75 399.253C744.75 399.253 745.387 406.111 746.241 406.599C747.096 407.088 760.861 406.264 762.057 405.622C763.254 404.98 761.142 398.202 760.883 397.882C760.624 397.562 746.377 398.281 744.75 399.253Z" fill="#C5B9D4"></path><path fill-rule="evenodd" clip-rule="evenodd" d="M250.024 361.328H706.679C708.26 361.328 709.552 362.625 709.552 364.2V383.714C709.552 385.287 708.254 386.585 706.679 386.585H250.024C248.451 386.585 247.152 385.294 247.152 383.714V364.2C247.152 362.621 248.445 361.328 250.024 361.328Z" fill="#9E90AE"></path><path fill-rule="evenodd" clip-rule="evenodd" d="M282.98 392.508H293.153H294.021H304.194L296.736 656.298H294.021H293.153H290.438L282.98 392.508Z" fill="#9E90AE"></path><path fill-rule="evenodd" clip-rule="evenodd" d="M318.377 386.594C311.607 392.75 302.982 396.442 293.587 396.442C284.191 396.442 275.566 392.75 268.797 386.594H318.377Z" fill="#7E728C"></path><path fill-rule="evenodd" clip-rule="evenodd" d="M652.512 392.508H662.683H663.553H673.724L666.267 656.298H663.553H662.683H659.969L652.512 392.508Z" fill="#9E90AE"></path><path fill-rule="evenodd" clip-rule="evenodd" d="M687.908 386.594C681.138 392.75 672.514 396.442 663.118 396.442C653.723 396.442 645.098 392.75 638.328 386.594H687.908Z" fill="#7E728C"></path><path fill-rule="evenodd" clip-rule="evenodd" d="M504.443 178.197L514.72 308.024H478.574L488.852 178.197V86.25H504.443V178.197Z" fill="#C5B9D4"></path><path fill-rule="evenodd" clip-rule="evenodd" d="M496.647 64.2578C507.163 64.2578 515.688 72.7823 515.688 83.2979C515.688 93.814 507.163 102.338 496.647 102.338C486.13 102.338 477.605 93.814 477.605 83.2979C477.605 72.7823 486.13 64.2578 496.647 64.2578Z" fill="#C5B9D4"></path><path fill-rule="evenodd" clip-rule="evenodd" d="M433.911 198.953C419.739 217.879 397.134 230.13 371.669 230.13C346.206 230.13 323.601 217.879 309.43 198.953H433.912H433.911Z" fill="#C5B9D4"></path><path fill-rule="evenodd" clip-rule="evenodd" d="M371.668 79.8125H621.621V86.785H371.668V79.8125Z" fill="#C5B9D4"></path><path fill-rule="evenodd" clip-rule="evenodd" d="M496.646 95.6283H496.647C498.564 95.6283 500.132 94.0604 500.132 92.1426V33.1419C500.132 31.2247 498.564 29.6562 496.647 29.6562H496.646C494.727 29.6562 493.16 31.2247 493.16 33.1419V92.1426C493.16 94.0604 494.727 95.6283 496.646 95.6283Z" fill="#C5B9D4"></path><path fill-rule="evenodd" clip-rule="evenodd" d="M514.815 46.1406C514.815 49.7605 511.852 52.7213 508.233 52.7213H485.058C481.438 52.7213 478.477 49.7605 478.477 46.1406H514.815Z" fill="#C5B9D4"></path><path fill-rule="evenodd" clip-rule="evenodd" d="M496.643 25C500.636 25 503.872 28.2369 503.872 32.229C503.872 36.2212 500.636 39.4575 496.643 39.4575C492.65 39.4575 489.414 36.2212 489.414 32.229C489.414 28.2369 492.65 25 496.643 25Z" fill="#C5B9D4"></path><path fill-rule="evenodd" clip-rule="evenodd" d="M371.671 73.7812C376.928 73.7812 381.189 78.0423 381.189 83.2974C381.189 88.5537 376.928 92.8148 371.671 92.8148C366.415 92.8148 362.152 88.5537 362.152 83.2974C362.152 78.0423 366.415 73.7812 371.671 73.7812Z" fill="#C5B9D4"></path><path fill-rule="evenodd" clip-rule="evenodd" d="M621.622 73.7812C626.879 73.7812 631.14 78.0423 631.14 83.2974C631.14 88.5537 626.879 92.8148 621.622 92.8148C616.366 92.8148 612.105 88.5537 612.105 83.2974C612.105 78.0423 616.366 73.7812 621.622 73.7812Z" fill="#C5B9D4"></path><path fill-rule="evenodd" clip-rule="evenodd" d="M317.523 201.107L371.669 77.9766L425.814 201.107L421.892 202.833L371.669 88.6233L321.446 202.833L317.523 201.107Z" fill="#C5B9D4"></path><path fill-rule="evenodd" clip-rule="evenodd" d="M683.864 198.953C669.691 217.879 647.086 230.13 621.623 230.13C596.159 230.13 573.554 217.879 559.383 198.953H683.864H683.864Z" fill="#C5B9D4"></path><path fill-rule="evenodd" clip-rule="evenodd" d="M567.477 201.107L621.621 77.9766L675.766 201.107L671.844 202.833L621.621 88.6233L571.399 202.833L567.477 201.107Z" fill="#C5B9D4"></path><path fill-rule="evenodd" clip-rule="evenodd" d="M554.104 320.251C550.997 313.076 543.838 308.023 535.554 308.023H457.735C449.451 308.023 442.292 313.076 439.184 320.251H554.105H554.104Z" fill="#C5B9D4"></path></g><defs><clipPath id="clip0_3662_2291"><rect width="871.521" height="650" fill="white" transform="translate(76 25)"></rect></clipPath></defs></svg> 